<svg width="1280" height="720" xmlns="http://www.w3.org/2000/svg" xmlns:xlink="http://www.w3.org/1999/xlink" overflow="hidden"><defs><filter id="fx0" x="-10%" y="-10%" width="120%" height="120%" filterUnits="userSpaceOnUse" primitiveUnits="userSpaceOnUse"><feComponentTransfer color-interpolation-filters="sRGB"><feFuncR type="discrete" tableValues="0 0"/><feFuncG type="discrete" tableValues="0 0"/><feFuncB type="discrete" tableValues="0 0"/><feFuncA type="linear" slope="0.4" intercept="0"/></feComponentTransfer><feGaussianBlur stdDeviation="4.44444 4.44444"/></filter><filter id="fx1" x="-10%" y="-10%" width="120%" height="120%" filterUnits="userSpaceOnUse" primitiveUnits="userSpaceOnUse"><feComponentTransfer color-interpolation-filters="sRGB"><feFuncR type="discrete" tableValues="1 1"/><feFuncG type="discrete" tableValues="1 1"/><feFuncB type="discrete" tableValues="1 1"/><feFuncA type="linear" slope="0.4" intercept="0"/></feComponentTransfer><feGaussianBlur stdDeviation="3.11111 3.11111"/></filter><clipPath id="clip2"><rect x="0" y="0" width="1280" height="720"/></clipPath><clipPath id="clip3"><rect x="-2" y="-2" width="1263" height="611"/></clipPath><clipPath id="clip4"><rect x="0" y="0" width="1260" height="607"/></clipPath><clipPath id="clip5"><rect x="-2" y="-2" width="1254" height="602"/></clipPath><clipPath id="clip6"><rect x="0" y="0" width="1252" height="599"/></clipPath></defs><g clip-path="url(#clip2)"><rect x="0" y="0" width="1280" height="720" fill="#D9D9D9"/><rect x="0.500053" y="0.500053" width="1280" height="105" stroke="#2F528F" stroke-width="1.33333" stroke-miterlimit="8" fill="#002060"/><text fill="#FFFFFF" font-family="Calibri,Calibri_MSFontService,sans-serif" font-weight="700" font-size="16" transform="translate(249.304 53)">Timeline</text><path d="M249.637 54.6767 268.637 54.6767 287.637 54.6767 306.637 54.6767 306.637 55.6767 287.637 55.6767 268.637 55.6767 249.637 55.6767Z" fill="#FFFFFF" fill-rule="evenodd"/><text fill="#FFFFFF" font-family="Calibri,Calibri_MSFontService,sans-serif" font-weight="400" font-size="16" transform="translate(383.924 53)">Project Details<tspan font-size="16" x="176.774" y="0">Budget</tspan></text><g clip-path="url(#clip3)" filter="url(#fx0)" transform="translate(24 119)"><g clip-path="url(#clip4)"><path d="M14.5425 55.7577C14.5425 32.9952 32.9952 14.5425 55.7577 14.5425L1203.33 14.5425C1226.09 14.5425 1244.54 32.9952 1244.54 55.7577L1244.54 550.327C1244.54 573.09 1226.09 591.542 1203.33 591.542L55.7577 591.542C32.9952 591.542 14.5425 573.09 14.5425 550.327Z" fill="#D9D9D9" fill-rule="evenodd"/></g></g><path d="M31 167.215C31 144.453 49.4527 126 72.2152 126L1219.78 126C1242.55 126 1261 144.453 1261 167.215L1261 661.785C1261 684.547 1242.55 703 1219.78 703L72.2152 703C49.4527 703 31 684.547 31 661.785Z" fill="#D9D9D9" fill-rule="evenodd"/><g clip-path="url(#clip5)" filter="url(#fx1)" transform="translate(10 111)"><g clip-path="url(#clip6)"><path d="M10.9766 52.567C10.9766 29.8045 29.4293 11.3518 52.1918 11.3518L1199.76 11.3518C1222.52 11.3518 1240.98 29.8045 1240.98 52.567L1240.98 547.137C1240.98 569.899 1222.52 588.352 1199.76 588.352L52.1918 588.352C29.4293 588.352 10.9766 569.899 10.9766 547.137Z" fill="#D9D9D9" fill-rule="evenodd"/></g></g><path d="M31 167.215C31 144.453 49.4527 126 72.2152 126L1219.78 126C1242.55 126 1261 144.453 1261 167.215L1261 661.785C1261 684.547 1242.55 703 1219.78 703L72.2152 703C49.4527 703 31 684.547 31 661.785Z" fill="#D9D9D9" fill-rule="evenodd"/></g></svg>