<svg width="1280" height="720" xmlns="http://www.w3.org/2000/svg" xmlns:xlink="http://www.w3.org/1999/xlink" overflow="hidden"><defs><filter id="fx0" x="-10%" y="-10%" width="120%" height="120%" filterUnits="userSpaceOnUse" primitiveUnits="userSpaceOnUse"><feComponentTransfer color-interpolation-filters="sRGB"><feFuncR type="discrete" tableValues="0 0"/><feFuncG type="discrete" tableValues="0 0"/><feFuncB type="discrete" tableValues="0 0"/><feFuncA type="linear" slope="0.4" intercept="0"/></feComponentTransfer><feGaussianBlur stdDeviation="1.77778 1.77778"/></filter><filter id="fx1" x="-10%" y="-10%" width="120%" height="120%" filterUnits="userSpaceOnUse" primitiveUnits="userSpaceOnUse"><feComponentTransfer color-interpolation-filters="sRGB"><feFuncR type="discrete" tableValues="1 1"/><feFuncG type="discrete" tableValues="1 1"/><feFuncB type="discrete" tableValues="1 1"/><feFuncA type="linear" slope="0.4" intercept="0"/></feComponentTransfer><feGaussianBlur stdDeviation="1.77778 1.77778"/></filter><filter id="fx2" x="-10%" y="-10%" width="120%" height="120%" filterUnits="userSpaceOnUse" primitiveUnits="userSpaceOnUse"><feComponentTransfer color-interpolation-filters="sRGB"><feFuncR type="discrete" tableValues="0 0"/><feFuncG type="discrete" tableValues="0 0"/><feFuncB type="discrete" tableValues="0 0"/><feFuncA type="linear" slope="0.4" intercept="0"/></feComponentTransfer><feGaussianBlur stdDeviation="1.77778 1.77778"/></filter><filter id="fx3" x="-10%" y="-10%" width="120%" height="120%" filterUnits="userSpaceOnUse" primitiveUnits="userSpaceOnUse"><feComponentTransfer color-interpolation-filters="sRGB"><feFuncR type="discrete" tableValues="1 1"/><feFuncG type="discrete" tableValues="1 1"/><feFuncB type="discrete" tableValues="1 1"/><feFuncA type="linear" slope="0.4" intercept="0"/></feComponentTransfer><feGaussianBlur stdDeviation="1.77778 1.77778"/></filter><filter id="fx4" x="-10%" y="-10%" width="120%" height="120%" filterUnits="userSpaceOnUse" primitiveUnits="userSpaceOnUse"><feComponentTransfer color-interpolation-filters="sRGB"><feFuncR type="discrete" tableValues="0 0"/><feFuncG type="discrete" tableValues="0 0"/><feFuncB type="discrete" tableValues="0 0"/><feFuncA type="linear" slope="0.4" intercept="0"/></feComponentTransfer><feGaussianBlur stdDeviation="1.77778 1.77778"/></filter><filter id="fx5" x="-10%" y="-10%" width="120%" height="120%" filterUnits="userSpaceOnUse" primitiveUnits="userSpaceOnUse"><feComponentTransfer color-interpolation-filters="sRGB"><feFuncR type="discrete" tableValues="1 1"/><feFuncG type="discrete" tableValues="1 1"/><feFuncB type="discrete" tableValues="1 1"/><feFuncA type="linear" slope="0.4" intercept="0"/></feComponentTransfer><feGaussianBlur stdDeviation="1.77778 1.77778"/></filter><filter id="fx6" x="-10%" y="-10%" width="120%" height="120%" filterUnits="userSpaceOnUse" primitiveUnits="userSpaceOnUse"><feComponentTransfer color-interpolation-filters="sRGB"><feFuncR type="discrete" tableValues="0 0"/><feFuncG type="discrete" tableValues="0 0"/><feFuncB type="discrete" tableValues="0 0"/><feFuncA type="linear" slope="0.4" intercept="0"/></feComponentTransfer><feGaussianBlur stdDeviation="1.77778 1.77778"/></filter><filter id="fx7" x="-10%" y="-10%" width="120%" height="120%" filterUnits="userSpaceOnUse" primitiveUnits="userSpaceOnUse"><feComponentTransfer color-interpolation-filters="sRGB"><feFuncR type="discrete" tableValues="1 1"/><feFuncG type="discrete" tableValues="1 1"/><feFuncB type="discrete" tableValues="1 1"/><feFuncA type="linear" slope="0.4" intercept="0"/></feComponentTransfer><feGaussianBlur stdDeviation="1.77778 1.77778"/></filter><clipPath id="clip8"><rect x="0" y="0" width="1280" height="720"/></clipPath><clipPath id="clip9"><rect x="-2" y="-2" width="521" height="217"/></clipPath><clipPath id="clip10"><rect x="0" y="0" width="516" height="214"/></clipPath><clipPath id="clip11"><rect x="-2" y="-2" width="519" height="215"/></clipPath><clipPath id="clip12"><rect x="0" y="0" width="516" height="213"/></clipPath><clipPath id="clip13"><rect x="-2" y="-2" width="523" height="370"/></clipPath><clipPath id="clip14"><rect x="0" y="0" width="520" height="366"/></clipPath><clipPath id="clip15"><rect x="-2" y="-2" width="523" height="368"/></clipPath><clipPath id="clip16"><rect x="0" y="0" width="520" height="366"/></clipPath><clipPath id="clip17"><rect x="-2" y="-2" width="715" height="277"/></clipPath><clipPath id="clip18"><rect x="0" y="0" width="711" height="273"/></clipPath><clipPath id="clip19"><rect x="-2" y="-2" width="713" height="275"/></clipPath><clipPath id="clip20"><rect x="0" y="0" width="711" height="273"/></clipPath><clipPath id="clip21"><rect x="-2" y="-2" width="715" height="312"/></clipPath><clipPath id="clip22"><rect x="0" y="0" width="711" height="308"/></clipPath><clipPath id="clip23"><rect x="-2" y="-2" width="713" height="310"/></clipPath><clipPath id="clip24"><rect x="0" y="0" width="711" height="308"/></clipPath></defs><g clip-path="url(#clip8)"><rect x="0" y="0" width="1280" height="720" fill="#D9D9D9"/><rect x="0.500053" y="0.500053" width="1280" height="105" stroke="#2F528F" stroke-width="1.33333" stroke-miterlimit="8" fill="#002060"/><text fill="#FFFFFF" font-family="Calibri,Calibri_MSFontService,sans-serif" font-weight="400" font-size="16" transform="translate(250.137 53)">Timeline<tspan font-weight="700" font-size="16" x="132.66" y="0">Project Details</tspan></text><path d="M382.404 54.6767 406.654 54.6767 430.904 54.6767 455.154 54.6767 479.404 54.6767 479.404 55.6767 455.154 55.6767 430.904 55.6767 406.654 55.6767 382.404 55.6767Z" fill="#FFFFFF" fill-rule="evenodd"/><text fill="#FFFFFF" font-family="Calibri,Calibri_MSFontService,sans-serif" font-weight="400" font-size="16" transform="translate(560.698 53)">Budget</text><g clip-path="url(#clip9)" filter="url(#fx0)" transform="translate(22 129)"><g clip-path="url(#clip10)"><path d="M7.48528 40.8192C7.48528 22.4094 22.4093 7.48528 40.8191 7.48528L476.151 7.48528C494.561 7.48528 509.485 22.4094 509.485 40.8192L509.485 174.151C509.485 192.561 494.561 207.485 476.151 207.485L40.8191 207.485C22.4093 207.485 7.48528 192.561 7.48528 174.151Z" fill="#D9D9D9" fill-rule="evenodd"/></g></g><path d="M21 161.334C21 142.924 35.9241 128 54.3338 128L489.666 128C508.076 128 523 142.924 523 161.334L523 294.666C523 313.076 508.076 328 489.666 328L54.3338 328C35.9241 328 21 313.076 21 294.666Z" fill="#D9D9D9" fill-rule="evenodd"/><g clip-path="url(#clip11)" filter="url(#fx1)" transform="translate(5 121)"><g clip-path="url(#clip12)"><path d="M6.66667 40.1675C6.66667 21.8496 21.5162 7 39.8341 7L475.499 7C493.817 7 508.667 21.8496 508.667 40.1675L508.667 172.833C508.667 191.15 493.817 206 475.499 206L39.8341 206C21.5162 206 6.66667 191.15 6.66667 172.833Z" fill="#D9D9D9" fill-rule="evenodd"/></g></g><path d="M21 161.167C21 142.85 35.8496 128 54.1675 128L489.832 128C508.15 128 523 142.85 523 161.167L523 293.833C523 312.15 508.15 327 489.832 327L54.1675 327C35.8496 327 21 312.15 21 293.833Z" fill="#D9D9D9" fill-rule="evenodd"/><g clip-path="url(#clip13)" filter="url(#fx2)" transform="translate(18 352)"><g clip-path="url(#clip14)"><path d="M7.48528 66.1529C7.48528 33.7517 33.7516 7.48529 66.1528 7.48529L454.818 7.48529C487.219 7.48529 513.485 33.7517 513.485 66.1529L513.485 300.818C513.485 333.219 487.219 359.485 454.818 359.485L66.1528 359.485C33.7516 359.485 7.48528 333.219 7.48528 300.818Z" fill="#D9D9D9" fill-rule="evenodd"/></g></g><path d="M17 409.668C17 377.266 43.2664 351 75.6676 351L464.332 351C496.734 351 523 377.266 523 409.668L523 644.332C523 676.734 496.734 703 464.332 703L75.6676 703C43.2664 703 17 676.734 17 644.332Z" fill="#D9D9D9" fill-rule="evenodd"/><g clip-path="url(#clip15)" filter="url(#fx3)" transform="translate(1 343)"><g clip-path="url(#clip16)"><path d="M6.66667 65.6676C6.66667 33.2664 32.933 7 65.3342 7L453.999 7C486.4 7 512.667 33.2664 512.667 65.6676L512.667 300.332C512.667 332.734 486.4 359 453.999 359L65.3342 359C32.933 359 6.66667 332.734 6.66667 300.332Z" fill="#D9D9D9" fill-rule="evenodd"/></g></g><path d="M17 408.668C17 376.266 43.2664 350 75.6676 350L464.332 350C496.734 350 523 376.266 523 408.668L523 643.332C523 675.734 496.734 702 464.332 702L75.6676 702C43.2664 702 17 675.734 17 643.332Z" fill="#D9D9D9" fill-rule="evenodd"/><g clip-path="url(#clip17)" filter="url(#fx4)" transform="translate(568 129)"><g clip-path="url(#clip18)"><path d="M7.48529 50.653C7.48529 26.8121 26.8121 7.48528 50.6529 7.48528L661.318 7.48528C685.158 7.48528 704.485 26.8121 704.485 50.653L704.485 223.318C704.485 247.158 685.158 266.485 661.318 266.485L50.6529 266.485C26.8121 266.485 7.48529 247.158 7.48529 223.318Z" fill="#D9D9D9" fill-rule="evenodd"/></g></g><path d="M567 171.168C567 147.327 586.327 128 610.168 128L1220.83 128C1244.67 128 1264 147.327 1264 171.168L1264 343.832C1264 367.673 1244.67 387 1220.83 387L610.168 387C586.327 387 567 367.673 567 343.832Z" fill="#D9D9D9" fill-rule="evenodd"/><g clip-path="url(#clip19)" filter="url(#fx5)" transform="translate(551 120)"><g clip-path="url(#clip20)"><path d="M6.66669 50.1677C6.66669 26.3268 25.9935 7 49.8343 7L660.499 7C684.34 7 703.667 26.3268 703.667 50.1677L703.667 222.832C703.667 246.673 684.34 266 660.499 266L49.8343 266C25.9935 266 6.66669 246.673 6.66669 222.832Z" fill="#D9D9D9" fill-rule="evenodd"/></g></g><path d="M567 170.168C567 146.327 586.327 127 610.168 127L1220.83 127C1244.67 127 1264 146.327 1264 170.168L1264 342.832C1264 366.673 1244.67 386 1220.83 386L610.168 386C586.327 386 567 366.673 567 342.832Z" fill="#D9D9D9" fill-rule="evenodd"/><g clip-path="url(#clip21)" filter="url(#fx6)" transform="translate(568 410)"><g clip-path="url(#clip22)"><path d="M7.48529 56.4864C7.48529 29.4238 29.4238 7.48529 56.4864 7.48529L655.484 7.48529C682.547 7.48529 704.485 29.4238 704.485 56.4864L704.485 252.484C704.485 279.547 682.547 301.485 655.484 301.485L56.4864 301.485C29.4238 301.485 7.48529 279.547 7.48529 252.484Z" fill="#D9D9D9" fill-rule="evenodd"/></g></g><path d="M567 458.001C567 430.939 588.939 409 616.001 409L1215 409C1242.06 409 1264 430.939 1264 458.001L1264 653.999C1264 681.061 1242.06 703 1215 703L616.001 703C588.939 703 567 681.061 567 653.999Z" fill="#D9D9D9" fill-rule="evenodd"/><g clip-path="url(#clip23)" filter="url(#fx7)" transform="translate(551 401)"><g clip-path="url(#clip24)"><path d="M6.66669 56.0011C6.66669 28.9386 28.6052 7 55.6678 7L654.665 7C681.728 7 703.667 28.9386 703.667 56.0011L703.667 251.999C703.667 279.061 681.728 301 654.665 301L55.6678 301C28.6052 301 6.66669 279.061 6.66669 251.999Z" fill="#D9D9D9" fill-rule="evenodd"/></g></g><path d="M567 457.001C567 429.939 588.939 408 616.001 408L1215 408C1242.06 408 1264 429.939 1264 457.001L1264 652.999C1264 680.061 1242.06 702 1215 702L616.001 702C588.939 702 567 680.061 567 652.999Z" fill="#D9D9D9" fill-rule="evenodd"/></g></svg>