<svg width="1280" height="720" xmlns="http://www.w3.org/2000/svg" xmlns:xlink="http://www.w3.org/1999/xlink" overflow="hidden"><defs><filter id="fx0" x="-10%" y="-10%" width="120%" height="120%" filterUnits="userSpaceOnUse" primitiveUnits="userSpaceOnUse"><feComponentTransfer color-interpolation-filters="sRGB"><feFuncR type="discrete" tableValues="0 0"/><feFuncG type="discrete" tableValues="0 0"/><feFuncB type="discrete" tableValues="0 0"/><feFuncA type="linear" slope="0.4" intercept="0"/></feComponentTransfer><feGaussianBlur stdDeviation="1.77778 1.77778"/></filter><filter id="fx1" x="-10%" y="-10%" width="120%" height="120%" filterUnits="userSpaceOnUse" primitiveUnits="userSpaceOnUse"><feComponentTransfer color-interpolation-filters="sRGB"><feFuncR type="discrete" tableValues="1 1"/><feFuncG type="discrete" tableValues="1 1"/><feFuncB type="discrete" tableValues="1 1"/><feFuncA type="linear" slope="0.4" intercept="0"/></feComponentTransfer><feGaussianBlur stdDeviation="1.77778 1.77778"/></filter><filter id="fx2" x="-10%" y="-10%" width="120%" height="120%" filterUnits="userSpaceOnUse" primitiveUnits="userSpaceOnUse"><feComponentTransfer color-interpolation-filters="sRGB"><feFuncR type="discrete" tableValues="0 0"/><feFuncG type="discrete" tableValues="0 0"/><feFuncB type="discrete" tableValues="0 0"/><feFuncA type="linear" slope="0.4" intercept="0"/></feComponentTransfer><feGaussianBlur stdDeviation="1.77778 1.77778"/></filter><filter id="fx3" x="-10%" y="-10%" width="120%" height="120%" filterUnits="userSpaceOnUse" primitiveUnits="userSpaceOnUse"><feComponentTransfer color-interpolation-filters="sRGB"><feFuncR type="discrete" tableValues="1 1"/><feFuncG type="discrete" tableValues="1 1"/><feFuncB type="discrete" tableValues="1 1"/><feFuncA type="linear" slope="0.4" intercept="0"/></feComponentTransfer><feGaussianBlur stdDeviation="1.77778 1.77778"/></filter><filter id="fx4" x="-10%" y="-10%" width="120%" height="120%" filterUnits="userSpaceOnUse" primitiveUnits="userSpaceOnUse"><feComponentTransfer color-interpolation-filters="sRGB"><feFuncR type="discrete" tableValues="0 0"/><feFuncG type="discrete" tableValues="0 0"/><feFuncB type="discrete" tableValues="0 0"/><feFuncA type="linear" slope="0.4" intercept="0"/></feComponentTransfer><feGaussianBlur stdDeviation="1.77778 1.77778"/></filter><filter id="fx5" x="-10%" y="-10%" width="120%" height="120%" filterUnits="userSpaceOnUse" primitiveUnits="userSpaceOnUse"><feComponentTransfer color-interpolation-filters="sRGB"><feFuncR type="discrete" tableValues="1 1"/><feFuncG type="discrete" tableValues="1 1"/><feFuncB type="discrete" tableValues="1 1"/><feFuncA type="linear" slope="0.4" intercept="0"/></feComponentTransfer><feGaussianBlur stdDeviation="1.77778 1.77778"/></filter><filter id="fx6" x="-10%" y="-10%" width="120%" height="120%" filterUnits="userSpaceOnUse" primitiveUnits="userSpaceOnUse"><feComponentTransfer color-interpolation-filters="sRGB"><feFuncR type="discrete" tableValues="0 0"/><feFuncG type="discrete" tableValues="0 0"/><feFuncB type="discrete" tableValues="0 0"/><feFuncA type="linear" slope="0.4" intercept="0"/></feComponentTransfer><feGaussianBlur stdDeviation="1.77778 1.77778"/></filter><filter id="fx7" x="-10%" y="-10%" width="120%" height="120%" filterUnits="userSpaceOnUse" primitiveUnits="userSpaceOnUse"><feComponentTransfer color-interpolation-filters="sRGB"><feFuncR type="discrete" tableValues="1 1"/><feFuncG type="discrete" tableValues="1 1"/><feFuncB type="discrete" tableValues="1 1"/><feFuncA type="linear" slope="0.4" intercept="0"/></feComponentTransfer><feGaussianBlur stdDeviation="1.77778 1.77778"/></filter><filter id="fx8" x="-10%" y="-10%" width="120%" height="120%" filterUnits="userSpaceOnUse" primitiveUnits="userSpaceOnUse"><feComponentTransfer color-interpolation-filters="sRGB"><feFuncR type="discrete" tableValues="0 0"/><feFuncG type="discrete" tableValues="0 0"/><feFuncB type="discrete" tableValues="0 0"/><feFuncA type="linear" slope="0.4" intercept="0"/></feComponentTransfer><feGaussianBlur stdDeviation="1.77778 1.77778"/></filter><filter id="fx9" x="-10%" y="-10%" width="120%" height="120%" filterUnits="userSpaceOnUse" primitiveUnits="userSpaceOnUse"><feComponentTransfer color-interpolation-filters="sRGB"><feFuncR type="discrete" tableValues="1 1"/><feFuncG type="discrete" tableValues="1 1"/><feFuncB type="discrete" tableValues="1 1"/><feFuncA type="linear" slope="0.4" intercept="0"/></feComponentTransfer><feGaussianBlur stdDeviation="1.77778 1.77778"/></filter><clipPath id="clip10"><rect x="0" y="0" width="1280" height="720"/></clipPath><clipPath id="clip11"><rect x="-2" y="-2" width="1264" height="122"/></clipPath><clipPath id="clip12"><rect x="0" y="0" width="1260" height="119"/></clipPath><clipPath id="clip13"><rect x="-2" y="-2" width="1262" height="122"/></clipPath><clipPath id="clip14"><rect x="0" y="0" width="1260" height="119"/></clipPath><clipPath id="clip15"><rect x="-2" y="-2" width="426" height="463"/></clipPath><clipPath id="clip16"><rect x="0" y="0" width="422" height="460"/></clipPath><clipPath id="clip17"><rect x="-2" y="-2" width="426" height="463"/></clipPath><clipPath id="clip18"><rect x="0" y="0" width="422" height="461"/></clipPath><clipPath id="clip19"><rect x="-2" y="-2" width="426" height="463"/></clipPath><clipPath id="clip20"><rect x="0" y="0" width="423" height="460"/></clipPath><clipPath id="clip21"><rect x="-2" y="-2" width="426" height="463"/></clipPath><clipPath id="clip22"><rect x="0" y="0" width="423" height="461"/></clipPath><clipPath id="clip23"><rect x="-2" y="-2" width="397" height="232"/></clipPath><clipPath id="clip24"><rect x="0" y="0" width="393" height="228"/></clipPath><clipPath id="clip25"><rect x="-2" y="-2" width="395" height="232"/></clipPath><clipPath id="clip26"><rect x="0" y="0" width="393" height="228"/></clipPath><clipPath id="clip27"><rect x="-2" y="-2" width="397" height="217"/></clipPath><clipPath id="clip28"><rect x="0" y="0" width="393" height="213"/></clipPath><clipPath id="clip29"><rect x="-2" y="-2" width="395" height="215"/></clipPath><clipPath id="clip30"><rect x="0" y="0" width="393" height="213"/></clipPath></defs><g clip-path="url(#clip10)"><rect x="0" y="0" width="1280" height="720" fill="#D9D9D9"/><rect x="0.500053" y="0.500053" width="1280" height="105" stroke="#2F528F" stroke-width="1.33333" stroke-miterlimit="8" fill="#002060"/><text fill="#FFFFFF" font-family="Calibri,Calibri_MSFontService,sans-serif" font-weight="400" font-size="16" transform="translate(250.137 53)">Timeline<tspan font-size="16" x="133.787" y="0">Project Details</tspan><tspan font-weight="700" font-size="16" x="309.924" y="0">Budget</tspan></text><path d="M560.175 54.6767 583.675 54.6767 607.175 54.6767 607.175 55.6767 583.675 55.6767 560.175 55.6767Z" fill="#FFFFFF" fill-rule="evenodd"/><g clip-path="url(#clip11)" filter="url(#fx0)" transform="translate(22 129)"><g clip-path="url(#clip12)"><path d="M7.48528 24.9857C7.48528 15.3205 15.3205 7.48528 24.9857 7.48528L1235.98 7.48528C1245.65 7.48528 1253.49 15.3205 1253.49 24.9857L1253.49 94.9848C1253.49 104.65 1245.65 112.485 1235.98 112.485L24.9857 112.485C15.3205 112.485 7.48528 104.65 7.48528 94.9848Z" fill="#D9D9D9" fill-rule="evenodd"/></g></g><path d="M21 145.5C21 135.835 28.8352 128 38.5004 128L1249.5 128C1259.16 128 1267 135.835 1267 145.5L1267 215.5C1267 225.165 1259.16 233 1249.5 233L38.5004 233C28.8352 233 21 225.165 21 215.5Z" fill="#D9D9D9" fill-rule="evenodd"/><g clip-path="url(#clip13)" filter="url(#fx1)" transform="translate(5 121)"><g clip-path="url(#clip14)"><path d="M6.66667 24.5005C6.66667 14.8352 14.5019 7 24.1671 7L1235.17 7C1244.83 7 1252.67 14.8352 1252.67 24.5005L1252.67 94.4995C1252.67 104.165 1244.83 112 1235.17 112L24.1671 112C14.5019 112 6.66667 104.165 6.66667 94.4995Z" fill="#D9D9D9" fill-rule="evenodd"/></g></g><path d="M21 145.5C21 135.835 28.8352 128 38.5004 128L1249.5 128C1259.16 128 1267 135.835 1267 145.5L1267 215.5C1267 225.165 1259.16 233 1249.5 233L38.5004 233C28.8352 233 21 225.165 21 215.5Z" fill="#D9D9D9" fill-rule="evenodd"/><g clip-path="url(#clip15)" filter="url(#fx2)" transform="translate(18 257)"><g clip-path="url(#clip16)"><path d="M7.48528 75.4866C7.48528 37.9305 37.9305 7.48529 75.4867 7.48529L347.484 7.48529C385.04 7.48529 415.485 37.9305 415.485 75.4866L415.485 385.484C415.485 423.04 385.04 453.485 347.484 453.485L75.4867 453.485C37.9305 453.485 7.48528 423.04 7.48528 385.484Z" fill="#D9D9D9" fill-rule="evenodd"/></g></g><path d="M17 324.001C17 286.445 47.4453 256 85.0014 256L356.999 256C394.555 256 425 286.445 425 324.001L425 633.999C425 671.555 394.555 702 356.999 702L85.0014 702C47.4453 702 17 671.555 17 633.999Z" fill="#D9D9D9" fill-rule="evenodd"/><g clip-path="url(#clip17)" filter="url(#fx3)" transform="translate(1 247)"><g clip-path="url(#clip18)"><path d="M6.66667 75.0013C6.66667 37.4452 37.1119 7 74.668 7L346.665 7C384.221 7 414.667 37.4452 414.667 75.0013L414.667 385.999C414.667 423.555 384.221 454 346.665 454L74.668 454C37.1119 454 6.66667 423.555 6.66667 385.999Z" fill="#D9D9D9" fill-rule="evenodd"/></g></g><path d="M17 322.001C17 284.445 47.4452 254 85.0013 254L356.999 254C394.555 254 425 284.445 425 322.001L425 632.999C425 670.555 394.555 701 356.999 701L85.0013 701C47.4452 701 17 670.555 17 632.999Z" fill="#D9D9D9" fill-rule="evenodd"/><g clip-path="url(#clip19)" filter="url(#fx4)" transform="translate(456 257)"><g clip-path="url(#clip20)"><path d="M7.48529 75.6534C7.48529 38.0052 38.0052 7.48529 75.6535 7.48529L348.317 7.48529C385.965 7.48529 416.485 38.0052 416.485 75.6534L416.485 385.317C416.485 422.965 385.965 453.485 348.317 453.485L75.6535 453.485C38.0052 453.485 7.48529 422.965 7.48529 385.317Z" fill="#D9D9D9" fill-rule="evenodd"/></g></g><path d="M455 324.168C455 286.52 485.52 256 523.168 256L795.832 256C833.48 256 864 286.52 864 324.168L864 633.832C864 671.48 833.48 702 795.832 702L523.168 702C485.52 702 455 671.48 455 633.832Z" fill="#D9D9D9" fill-rule="evenodd"/><g clip-path="url(#clip21)" filter="url(#fx5)" transform="translate(439 247)"><g clip-path="url(#clip22)"><path d="M6.66666 75.168C6.66666 37.5198 37.1865 7 74.8347 7L347.499 7C385.147 7 415.667 37.5198 415.667 75.168L415.667 385.832C415.667 423.48 385.147 454 347.499 454L74.8347 454C37.1865 454 6.66666 423.48 6.66666 385.832Z" fill="#D9D9D9" fill-rule="evenodd"/></g></g><path d="M455 322.168C455 284.52 485.52 254 523.168 254L795.832 254C833.48 254 864 284.52 864 322.168L864 632.832C864 670.48 833.48 701 795.832 701L523.168 701C485.52 701 455 670.48 455 632.832Z" fill="#D9D9D9" fill-rule="evenodd"/><g clip-path="url(#clip23)" filter="url(#fx6)" transform="translate(885 488)"><g clip-path="url(#clip24)"><path d="M7.48529 43.1525C7.48529 23.454 23.454 7.48529 43.1525 7.48529L350.818 7.48529C370.517 7.48529 386.485 23.454 386.485 43.1525L386.485 185.818C386.485 205.517 370.517 221.485 350.818 221.485L43.1525 221.485C23.454 221.485 7.48529 205.517 7.48529 185.818Z" fill="#D9D9D9" fill-rule="evenodd"/></g></g><path d="M884 522.667C884 502.969 899.969 487 919.667 487L1227.33 487C1247.03 487 1263 502.969 1263 522.667L1263 665.333C1263 685.031 1247.03 701 1227.33 701L919.667 701C899.969 701 884 685.031 884 665.333Z" fill="#D9D9D9" fill-rule="evenodd"/><g clip-path="url(#clip25)" filter="url(#fx7)" transform="translate(868 479)"><g clip-path="url(#clip26)"><path d="M6.66669 42.6672C6.66669 22.9688 22.6354 7 42.3339 7L349.999 7C369.698 7 385.667 22.9688 385.667 42.6672L385.667 185.333C385.667 205.031 369.698 221 349.999 221L42.3339 221C22.6354 221 6.66669 205.031 6.66669 185.333Z" fill="#D9D9D9" fill-rule="evenodd"/></g></g><path d="M884 521.667C884 501.969 899.969 486 919.667 486L1227.33 486C1247.03 486 1263 501.969 1263 521.667L1263 664.333C1263 684.031 1247.03 700 1227.33 700L919.667 700C899.969 700 884 684.031 884 664.333Z" fill="#D9D9D9" fill-rule="evenodd"/><g clip-path="url(#clip27)" filter="url(#fx8)" transform="translate(885 262)"><g clip-path="url(#clip28)"><path d="M7.48529 40.6528C7.48529 22.3349 22.3349 7.48529 40.6528 7.48529L353.318 7.48529C371.636 7.48529 386.485 22.3349 386.485 40.6528L386.485 173.318C386.485 191.636 371.636 206.485 353.318 206.485L40.6528 206.485C22.3349 206.485 7.48529 191.636 7.48529 173.318Z" fill="#D9D9D9" fill-rule="evenodd"/></g></g><path d="M884 294.167C884 275.85 898.85 261 917.167 261L1229.83 261C1248.15 261 1263 275.85 1263 294.167L1263 426.833C1263 445.15 1248.15 460 1229.83 460L917.167 460C898.85 460 884 445.15 884 426.833Z" fill="#D9D9D9" fill-rule="evenodd"/><g clip-path="url(#clip29)" filter="url(#fx9)" transform="translate(868 253)"><g clip-path="url(#clip30)"><path d="M6.66669 40.1675C6.66669 21.8496 21.5163 7 39.8342 7L352.499 7C370.817 7 385.667 21.8496 385.667 40.1675L385.667 172.833C385.667 191.15 370.817 206 352.499 206L39.8342 206C21.5163 206 6.66669 191.15 6.66669 172.833Z" fill="#D9D9D9" fill-rule="evenodd"/></g></g><path d="M884 293.167C884 274.85 898.85 260 917.167 260L1229.83 260C1248.15 260 1263 274.85 1263 293.167L1263 425.833C1263 444.15 1248.15 459 1229.83 459L917.167 459C898.85 459 884 444.15 884 425.833Z" fill="#D9D9D9" fill-rule="evenodd"/><path d="M37.5001 131.5 37.5002 222.341" stroke="#0D0D0D" stroke-width="0.666667" stroke-miterlimit="8" fill="none" fill-rule="evenodd"/><path d="M323.5 131.5 323.5 222.341" stroke="#0D0D0D" stroke-width="0.666667" stroke-miterlimit="8" fill="none" fill-rule="evenodd"/><path d="M619.5 132.5 619.5 223.341" stroke="#0D0D0D" stroke-width="0.666667" stroke-miterlimit="8" fill="none" fill-rule="evenodd"/></g></svg>